<svg width="28" height="28" viewBox="0 0 28 28" fill="none" xmlns="http://www.w3.org/2000/svg">
<path d="M26.71 6.26V6.22C26.43 3.62 24.37 1.56 21.77 1.29C19.92 1.1 16.86 1 14 1C11.14 1 8.08 1.1 6.23 1.29C3.62 1.56 1.56 3.62 1.29 6.22V6.26C1.13 7.8 1 8.04 1 11.29C1 14.54 1.13 15.05 1.29 16.59V16.63C1.57 19.23 3.63 21.29 6.23 21.56C7.25 21.67 8.64 21.74 10.16 21.79L13.11 26.47C13.44 27 14.14 27.16 14.67 26.82C14.81 26.73 14.93 26.61 15.02 26.47L17.97 21.78C19.44 21.73 20.78 21.66 21.77 21.55C24.38 21.28 26.44 19.22 26.71 16.62V16.58C26.87 15.04 27 14.52 27 11.28C27 8.04 26.87 7.79 26.71 6.26Z" fill="#3FC0F3"/>
<path d="M1.29 16.62C1.32 16.92 1.38 17.22 1.46 17.51C3.24 18.28 5.16 18.68 7.1 18.68C14.91 18.68 21.25 12.34 21.25 4.53C21.25 3.41 21.12 2.3 20.86 1.21C19 1.07 16.43 1 14 1C11.13 1 8.08 1.1 6.23 1.29C3.62 1.56 1.56 3.62 1.29 6.22V6.26C1.13 7.8 1 8.04 1 11.28C1 14.52 1.13 15.04 1.29 16.58V16.62Z" fill="#4EC9F9"/>
<path d="M14 19.13C13.05 19.13 12.28 18.36 12.28 17.4C12.28 16.45 13.05 15.68 14.01 15.68C14.96 15.68 15.73 16.45 15.73 17.4C15.73 18.35 14.96 19.12 14 19.12V19.13ZM15.67 13.19C15.64 13.46 15.52 13.7 15.33 13.89C15.14 14.08 14.88 14.2 14.61 14.22C14.44 14.24 14.27 14.25 14.1 14.25C13.9 14.25 13.69 14.25 13.49 14.22C13.22 14.19 12.97 14.07 12.77 13.89C12.58 13.7 12.46 13.45 12.43 13.19C12.39 12.8 12.37 10.1 12.37 9.5C12.37 8.9 12.39 6.19 12.43 5.8C12.46 5.53 12.58 5.29 12.77 5.1C12.96 4.91 13.22 4.79 13.49 4.77C13.69 4.75 13.9 4.74 14.1 4.75C14.27 4.75 14.44 4.75 14.61 4.77C14.88 4.8 15.13 4.92 15.32 5.1C15.51 5.29 15.63 5.54 15.66 5.8C15.7 6.19 15.72 8.9 15.72 9.5C15.72 10.1 15.7 12.8 15.66 13.19H15.67Z" fill="white"/>
</svg>
