<svg width="28" height="28" viewBox="0 0 28 28" fill="none" xmlns="http://www.w3.org/2000/svg">
<path d="M13.9341 5.12158C12.7936 5.12158 11.8733 4.19123 11.8733 3.06079C11.8733 1.93036 12.8036 1 13.9341 1C15.0645 1 15.9949 1.93036 15.9949 3.06079C15.9949 4.19123 15.0645 5.12158 13.9341 5.12158ZM13.9341 1.82032C13.2538 1.82032 12.6936 2.38053 12.6936 3.06079C12.6936 3.74105 13.2538 4.30127 13.9341 4.30127C14.6143 4.30127 15.1746 3.74105 15.1746 3.06079C15.1746 2.38053 14.6143 1.82032 13.9341 1.82032Z" fill="#EBAF4B"/>
<path d="M13.9341 5.12159C14.7044 5.12159 15.3647 4.69142 15.7148 4.07118C15.4147 4.01116 15.1146 3.96114 14.8044 3.93113C14.5844 4.16122 14.2742 4.30127 13.9241 4.30127C13.574 4.30127 13.2739 4.16122 13.0438 3.93113C12.7337 3.96114 12.4335 4.01116 12.1334 4.07118C12.4936 4.69142 13.1538 5.12159 13.9141 5.12159H13.9341Z" fill="#E1A546"/>
<path d="M13.9341 27C15.3043 27 16.415 25.8892 16.415 24.519C16.415 23.1488 15.3043 22.0381 13.9341 22.0381C12.5639 22.0381 11.4531 23.1488 11.4531 24.519C11.4531 25.8892 12.5639 27 13.9341 27Z" fill="#FFC850"/>
<path d="M11.4931 24.1089C11.4731 24.2389 11.4531 24.379 11.4531 24.519C11.4531 24.6591 11.4631 24.7992 11.4931 24.9292C11.4931 24.9292 11.4931 24.9392 11.4931 24.9492C11.6832 26.0496 12.6036 26.9 13.734 26.99C13.4539 26.6699 13.2538 26.2897 13.1638 25.8596C13.1138 25.5995 13.3038 25.3494 13.5639 25.3494H16.265C16.355 25.0893 16.405 24.8092 16.405 24.519C16.405 24.379 16.385 24.2389 16.365 24.1089H11.4831H11.4931Z" fill="#EBAF4B"/>
<path d="M22.4474 19.307L21.667 11.6941C21.2569 7.73259 17.9156 4.71143 13.9341 4.71143C9.94254 4.71143 6.60126 7.72258 6.2011 11.6941L5.4208 19.307C5.32077 20.2574 4.79056 21.0977 3.97025 21.5879C3.49006 21.878 3.19995 22.3882 3.19995 22.9484C3.19995 23.8188 3.91022 24.529 4.78056 24.529H23.0876C23.9579 24.529 24.6682 23.8188 24.6682 22.9484C24.6682 22.3882 24.3781 21.878 23.8979 21.5879C23.0776 21.0977 22.5474 20.2574 22.4474 19.307Z" fill="#FFDC64"/>
<path d="M20.0864 20.8076H12.1033C11.6231 20.8076 11.233 20.3975 11.283 19.9173C11.303 19.7172 11.313 19.5171 11.323 19.307L11.5631 11.6941C11.6932 7.73259 12.7136 4.71143 13.944 4.71143C9.95251 4.71143 6.61122 7.72258 6.21107 11.6941L5.43077 19.277C5.33073 20.2174 4.84054 21.1077 4.02023 21.5679C3.42 21.908 3.08987 22.5983 3.24993 23.2986C3.42 24.0389 4.12026 24.529 4.87055 24.529H11.133C10.9529 24.529 10.8028 24.0088 10.7128 23.4086C10.6428 22.9084 11.0229 22.4582 11.5331 22.4582H20.1364C20.6366 22.4582 21.0368 22.0081 20.9467 21.4979C20.8767 21.0877 20.4966 20.8076 20.0864 20.8076Z" fill="#FFC850"/>
</svg>
