<svg width="28" height="28" viewBox="0 0 28 28" fill="none" xmlns="http://www.w3.org/2000/svg">
<path d="M19.3353 26.3421H14.4879C14.0805 26.3421 13.7501 26.0118 13.7501 25.6043C13.7501 25.1969 14.0804 24.8666 14.4879 24.8666H19.3353C21.9506 24.8666 24.0784 22.7389 24.0784 20.1235V16.5557C24.0784 16.1483 24.4087 15.8179 24.8162 15.8179C25.2236 15.8179 25.5539 16.1482 25.5539 16.5557V20.1235C25.5539 23.5525 22.7642 26.3421 19.3353 26.3421Z" fill="#DBE8F9"/>
<path d="M24.5455 18.0099C23.9887 18.0099 23.5373 17.5585 23.5373 17.0017V12.9465C23.5373 7.70246 19.2709 3.43608 14.0269 3.43608C8.7828 3.43608 4.51642 7.70246 4.51642 12.9465V17.0017C4.51642 17.5586 4.06503 18.0099 3.50821 18.0099C2.95139 18.0099 2.5 17.5585 2.5 17.0017V12.9465C2.5 9.86762 3.69899 6.97294 5.87614 4.7958C8.05328 2.6186 10.9479 1.41961 14.0269 1.41961C17.1058 1.41961 20.0005 2.6186 22.1776 4.7958C24.3547 6.97294 25.5537 9.86762 25.5537 12.9465V17.0017C25.5538 17.5585 25.1023 18.0099 24.5455 18.0099Z" fill="#756E78"/>
<path d="M5.60781 20.5543V13.4312C5.60781 12.9219 6.02071 12.509 6.53 12.509H5.5063C3.84596 12.509 2.5 13.8549 2.5 15.5153V18.4702C2.5 20.1305 3.84596 21.4765 5.5063 21.4765H6.52994C6.02066 21.4765 5.60781 21.0636 5.60781 20.5543Z" fill="#665E66"/>
<path d="M8.71564 20.0132V13.9723C8.71564 13.1641 8.06051 12.509 7.25238 12.509H6.64961L6.44141 12.7787V21.2906L6.64961 21.4765H7.25238C8.06051 21.4765 8.71564 20.8214 8.71564 20.0132Z" fill="#BCD6F9"/>
<path d="M21.9555 12.509H21.4042L21.1775 12.9798V21.0057L21.4042 21.4765H21.9555C22.2145 21.3442 22.3923 21.0753 22.3923 20.7644V13.2211C22.3923 12.9102 22.2146 12.6413 21.9555 12.509Z" fill="#665E66"/>
<path d="M22.5475 12.509H21.3373C21.7705 12.509 22.1218 12.8602 22.1218 13.2935V20.692C22.1218 21.1252 21.7705 21.4765 21.3373 21.4765H22.5475C24.2078 21.4765 25.5538 20.1305 25.5538 18.4702V15.5153C25.5538 13.8549 24.2078 12.509 22.5475 12.509Z" fill="#544F57"/>
<path d="M19.3381 20.0132V13.9723C19.3381 13.1641 19.9933 12.509 20.8014 12.509H21.4042V21.4765H20.8014C19.9933 21.4765 19.3381 20.8214 19.3381 20.0132Z" fill="#C9E0FD"/>
<path d="M14.8983 26.9994H17.5533C18.3324 26.9994 18.964 26.3678 18.964 25.5886C18.964 24.8096 18.3325 24.1779 17.5533 24.1779H14.8983C14.1192 24.1779 13.4875 24.8095 13.4875 25.5886C13.4875 26.3678 14.1192 26.9994 14.8983 26.9994Z" fill="#454045"/>
<path d="M20.9114 7.02174C21.0244 6.85573 21.0352 6.63966 20.9371 6.46431C20.4236 5.54634 19.7801 4.69362 19.0159 3.92942C17.6135 2.52699 15.9131 1.53132 14.0578 0.999747C14.057 0.999646 14.0561 0.999493 14.0553 0.999392C10.8535 0.992028 7.84216 2.23541 5.57894 4.49862C4.64802 5.42954 3.89184 6.47883 3.32024 7.63075C2.9533 8.37028 3.29663 9.26631 4.05947 9.58207C4.75496 9.86995 5.5537 9.56968 5.88911 8.89581C6.52829 7.61171 7.46353 6.49762 8.64049 5.62871C10.2111 4.46922 12.0736 3.85629 14.0268 3.85629C16.0157 3.85629 17.9058 4.48968 19.4926 5.68797C20.0126 6.08066 20.4881 6.52931 20.9114 7.02174Z" fill="#544F57"/>
<path d="M24.8344 7.83769C24.2529 6.60548 23.4628 5.48667 22.4748 4.49862C20.2183 2.24211 17.2181 0.99939 14.0269 0.99939C13.8442 0.99939 13.6622 1.00396 13.481 1.01208C15.4555 1.51893 17.2663 2.54603 18.7456 4.02534C19.6364 4.91614 20.3632 5.9272 20.9114 7.02173C21.4436 7.64086 21.8931 8.3293 22.2432 9.0642C22.5696 9.74939 23.3728 10.062 24.0757 9.7759L24.0786 9.77473C24.8392 9.46517 25.1849 8.58031 24.8344 7.83769Z" fill="#454045"/>
<path d="M6.64956 21.4765V12.509H6.18354C5.67425 12.509 5.26135 12.9218 5.26135 13.4312V20.5544C5.26135 21.0636 5.67425 21.4765 6.18354 21.4765H6.64956V21.4765Z" fill="#544F57"/>
</svg>
