<svg width="28" height="28" viewBox="0 0 28 28" fill="none" xmlns="http://www.w3.org/2000/svg">
<path d="M8.64216 20.5463C15.2121 20.5463 20.5375 15.2201 20.5375 8.65017C20.5375 5.73898 19.4885 3.07588 17.7528 1.008C23.1157 2.72957 26.9992 7.75275 26.9992 13.6875C26.9992 21.0441 21.0361 27.0072 13.6795 27.0072C7.74475 27.0072 2.72157 23.1237 1 17.7608C3.06788 19.4974 5.73181 20.5463 8.64216 20.5463Z" fill="#FFD93B"/>
<path d="M21.9119 3.23323C23.6934 5.49674 24.764 8.34632 24.764 11.4515C24.764 18.8081 18.8009 24.7711 11.4443 24.7711C8.33916 24.7711 5.48959 23.7006 3.22607 21.9191C5.66357 25.0134 9.43554 27.0072 13.6804 27.0072C21.037 27.0072 27 21.0441 27 13.6875C27 9.4427 25.0062 5.67156 21.9119 3.23323Z" fill="#F4C534"/>
<path d="M7.66638 6.20768L9.0383 8.98899L12.1068 9.43437L9.8866 11.5988L10.4102 14.6548L7.66638 13.2122L4.92169 14.6548L5.44532 11.5988L3.2251 9.43437L6.29362 8.98899L7.66638 6.20768ZM15.4051 5.31776L16.116 6.75961L17.7069 6.99021L16.5556 8.11239L16.8278 9.69577L15.4051 8.9482L13.9824 9.69577L14.2546 8.11239L13.1033 6.99021L14.6942 6.75961L15.4051 5.31776Z" fill="#AAAAAA"/>
</svg>
