<svg width="28" height="28" viewBox="0 0 28 28" fill="none" xmlns="http://www.w3.org/2000/svg">
<path d="M27 10.3937C27 18.275 17.6562 23.475 14.8125 24.8563C14.325 25.1 13.675 25.1 13.1875 24.8563C10.3438 23.475 1 18.4375 1 10.3937C1 6.33124 4.00624 3 7.66249 3C10.5875 3 13.025 5.03128 13.9187 7.87498C14.8125 5.03122 17.3312 3 20.175 3C23.9938 3 27 6.33124 27 10.3937Z" fill="#E24C4B"/>
<path d="M27.0002 10.3937C27.0002 18.275 17.6564 23.475 14.8127 24.8563C14.3252 25.1 13.6752 25.1 13.1064 24.8563C11.8064 24.2875 9.36892 22.9063 6.9314 20.9562H7.01263C14.7314 20.9562 20.9064 14.7 20.9064 7.06249C20.9064 5.68123 20.6626 4.29997 20.2564 3C24.0752 3.08124 27.0002 6.33124 27.0002 10.3937Z" fill="#D1403F"/>
<g opacity="0.2">
<path d="M7.25627 9.175C5.95624 9.50001 4.73751 9.01253 4.49374 8.11875C4.33127 7.14373 5.14376 6.16871 6.44378 5.8437C7.74381 5.5187 8.96254 6.00618 9.20631 6.89996C9.45002 7.87498 8.55629 8.85 7.25627 9.175Z" fill="white"/>
</g>
</svg>
