<svg width="28" height="28" viewBox="0 0 28 28" fill="none" xmlns="http://www.w3.org/2000/svg">
<path d="M24.7148 5.62109H13.0478L11.2944 26.7357C11.6026 26.8898 11.934 27 12.298 27H24.7148C25.9749 27 27 25.9749 27 24.7148V7.90625C27 6.64616 25.9749 5.62109 24.7148 5.62109Z" fill="#DBDBDB"/>
<path d="M9.62598 21.7116L10.0307 24.9983C10.1119 25.651 10.5537 26.3654 11.2944 26.7357C12.7755 25.1425 11.7826 26.1598 15.2974 22.3789L9.62598 21.7116Z" fill="#453A2E"/>
<path d="M15.2975 22.3789C15.5467 22.0941 15.7653 21.9029 15.7065 21.5108L13.399 3.00175C13.2569 1.86064 12.2817 1 11.1317 1H3.28516C2.02507 1 1 2.02507 1 3.28516V20.0938C1 21.3538 2.02507 22.3789 3.28516 22.3789H15.2975Z" fill="#6F5E4A"/>
<path d="M9.41488 6.99503C9.34348 6.63946 9.03103 6.38281 8.66804 6.38281H7.1446C6.78162 6.38281 6.46916 6.63946 6.39776 6.99503L4.87433 14.6122C4.79176 15.0251 5.05953 15.426 5.47167 15.5086C5.88899 15.5941 6.2862 15.3234 6.36801 14.9112L6.85485 12.4766H8.95775L9.44459 14.9112C9.52792 15.3295 9.93701 15.5917 10.3409 15.5086C10.753 15.426 11.0208 15.0251 10.9383 14.6122L9.41488 6.99503ZM7.15948 10.9531L7.76871 7.90625H8.04394L8.65316 10.9531H7.15948Z" fill="white"/>
<path d="M23.1406 12.4766H20.8555V11.7148C20.8555 11.2938 20.5148 10.9531 20.0938 10.9531C19.6727 10.9531 19.332 11.2938 19.332 11.7148V12.4766H17.0469C16.6258 12.4766 16.2852 12.8173 16.2852 13.2383C16.2852 13.6593 16.6258 14 17.0469 14H17.2503C17.6837 15.3905 18.3203 16.4786 19.0346 17.3364C18.475 17.848 17.9274 18.2677 17.3325 18.7377C17.0045 19.0003 16.9509 19.4793 17.2142 19.8081C17.4764 20.1364 17.9573 20.1897 18.2846 19.9264C18.9311 19.4162 19.4871 18.9892 20.0938 18.4323C20.7004 18.9892 21.2564 19.4162 21.9028 19.9264C22.2302 20.1897 22.7111 20.1364 22.9733 19.8081C23.2366 19.4793 23.183 19.0003 22.8549 18.7377C22.26 18.2677 21.7125 17.848 21.1529 17.3364C21.8672 16.4787 22.5038 15.3906 22.9371 14H23.1406C23.5617 14 23.9023 13.6593 23.9023 13.2383C23.9023 12.8173 23.5617 12.4766 23.1406 12.4766ZM20.0938 16.2073C19.6096 15.5987 19.1721 14.8835 18.8432 14H21.3443C21.0154 14.8835 20.5779 15.5987 20.0938 16.2073Z" fill="#888888"/>
</svg>
