<svg width="28" height="28" viewBox="0 0 28 28" fill="none" xmlns="http://www.w3.org/2000/svg">
<g clip-path="url(#clip0_2300_15356)">
<path d="M20.8337 14C20.8337 18.0742 18.0741 21.3771 13.9999 21.3771C9.9256 21.3771 6.6228 18.0742 6.6228 14C6.6228 9.9257 9.92565 6.62285 13.9999 6.62285C18.0742 6.62285 20.8337 9.9257 20.8337 14Z" fill="#FEE45A"/>
<path d="M13.9999 6.62285C13.7245 6.62285 13.4527 6.63844 13.1851 6.66788C16.8758 7.07354 19.7473 10.2012 19.7473 14C19.7473 17.7988 16.8758 20.9264 13.1851 21.3321C13.4527 21.3615 13.7245 21.3771 13.9999 21.3771C18.0742 21.3771 21.3771 18.0742 21.3771 14C21.3771 9.9257 18.0742 6.62285 13.9999 6.62285Z" fill="#FED402"/>
<path d="M14.0001 4.81516H12.666C12.4704 4.81516 12.3339 4.62159 12.3994 4.43737L13.1326 2.37707L13.7336 0.688076C13.8228 0.437308 14.1774 0.437308 14.2667 0.688076L14.8677 2.37707L15.6008 4.43737C15.6664 4.62154 15.5297 4.81516 15.3343 4.81516H14.0001Z" fill="#FEE45A"/>
<path d="M14.0001 23.1848H15.3343C15.5298 23.1848 15.6664 23.3784 15.6008 23.5626L14.8677 25.6229L14.2666 27.3119C14.1774 27.5627 13.8228 27.5627 13.7335 27.3119L13.1325 25.6229L12.3994 23.5626C12.3339 23.3784 12.4705 23.1848 12.6659 23.1848H14.0001Z" fill="#FEE45A"/>
<path d="M23.1848 14V12.6658C23.1848 12.4703 23.3784 12.3337 23.5626 12.3993L25.6229 13.1324L27.3119 13.7335C27.5627 13.8227 27.5627 14.1773 27.3119 14.2666L25.6229 14.8676L23.5626 15.6007C23.3784 15.6663 23.1848 15.5296 23.1848 15.3342V14Z" fill="#FED402"/>
<path d="M4.81516 14V15.3341C4.81516 15.5296 4.62159 15.6662 4.43737 15.6006L2.37707 14.8675L0.688076 14.2665C0.437308 14.1773 0.437308 13.8227 0.688076 13.7334L2.37707 13.1324L4.43737 12.3993C4.62159 12.3338 4.81516 12.4703 4.81516 12.6658V14Z" fill="#FEE45A"/>
<path d="M7.50531 7.50532L6.56195 8.44868C6.42369 8.58694 6.19025 8.54663 6.10637 8.37002L5.16795 6.39479L4.39858 4.7755C4.28434 4.5351 4.5351 4.28434 4.77555 4.39853L6.39484 5.16784L8.37007 6.10626C8.54669 6.19014 8.58694 6.42363 8.44874 6.56184L7.50531 7.50532Z" fill="#FEE45A"/>
<path d="M20.4948 20.4946L21.4382 19.5513C21.5765 19.413 21.8099 19.4533 21.8938 19.6299L22.8323 21.6052L23.6016 23.2245C23.7158 23.4648 23.465 23.7156 23.2246 23.6014L21.6053 22.8321L19.6301 21.8936C19.4535 21.8098 19.4132 21.5763 19.5514 21.4381L20.4948 20.4946Z" fill="#FED402"/>
<path d="M20.4948 7.50532L19.5514 6.56195C19.4132 6.42369 19.4535 6.19026 19.6301 6.10638L21.6053 5.16795L23.2246 4.39864C23.465 4.2844 23.7158 4.53516 23.6016 4.77561L22.8323 6.3949L21.8938 8.37013C21.8099 8.54675 21.5764 8.587 21.4382 8.4488L20.4948 7.50532Z" fill="#FED402"/>
<path d="M7.50535 20.4946L8.44871 21.438C8.58697 21.5763 8.54666 21.8097 8.37005 21.8936L6.39482 22.832L4.77553 23.6013C4.53513 23.7155 4.28437 23.4648 4.39856 23.2243L5.16787 21.605L6.10629 19.6298C6.19017 19.4532 6.42366 19.4129 6.56187 19.5511L7.50535 20.4946Z" fill="#FEE45A"/>
</g>
<defs>
<clipPath id="clip0_2300_15356">
<rect width="28" height="28" fill="white"/>
</clipPath>
</defs>
</svg>
