<svg width="28" height="28" viewBox="0 0 28 28" fill="none" xmlns="http://www.w3.org/2000/svg">
<path fill-rule="evenodd" clip-rule="evenodd" d="M17.4735 1.65608L27.1741 9.66169C27.5551 9.97497 27.6099 10.5378 27.2967 10.9187C27.257 10.967 27.2124 11.011 27.1636 11.05L17.4135 19.0964C17.0325 19.4097 16.4697 19.3548 16.1564 18.9738C16.0247 18.8141 15.9528 18.6136 15.9531 18.4066H15.9498V15.1793C12.9481 15.3613 10.194 16.4508 7.95877 18.1768C5.44441 20.1184 3.58288 22.8629 2.7594 26.0252C2.63565 26.5028 2.14808 26.7897 1.67043 26.666C1.34023 26.5804 1.10124 26.3209 1.026 26.0111C0.852947 25.3433 0.722487 24.6651 0.635407 23.9807C0.546107 23.2807 0.5 22.5849 0.5 21.8969C0.5 17.3832 2.32965 13.2967 5.28771 10.3386C8.04869 7.57764 11.7928 5.79998 15.9496 5.57533V2.29637C15.9496 1.80135 16.351 1.4 16.846 1.4C17.0904 1.4 17.3118 1.49771 17.4735 1.65608Z" fill="#705499"/>
<path fill-rule="evenodd" clip-rule="evenodd" d="M15.9467 12.7039C12.945 12.8859 8.62667 14.4796 6.39147 16.2056C3.87705 18.1472 2.01558 20.8917 1.1921 24.054C1.16043 24.1767 1.10294 24.2913 1.02346 24.3901C0.943978 24.4889 0.844342 24.5695 0.731201 24.6267C0.809379 25.0923 0.907849 25.5541 1.02633 26.0111C1.10151 26.3209 1.34051 26.5804 1.67076 26.6659C2.14841 26.7897 2.63592 26.5028 2.75973 26.0251C3.58321 22.8629 5.44469 20.1183 7.9591 18.1768C10.1941 16.4509 12.9479 15.3614 15.9494 15.1793L15.9467 12.7039ZM25.5961 9.07872L15.95 17.0393V18.4066H15.9533C15.953 18.6136 16.0249 18.8142 16.1567 18.9738C16.4699 19.3548 17.0327 19.4096 17.4137 19.0964L27.1637 11.05C27.2126 11.011 27.2572 10.967 27.2969 10.9187C27.6101 10.5378 27.5553 9.97498 27.1743 9.6617L25.9014 8.61127C25.8527 8.7959 25.7456 8.95985 25.5961 9.07872Z" fill="#674A91"/>
</svg>
