<svg width="28" height="28" viewBox="0 0 28 28" fill="none" xmlns="http://www.w3.org/2000/svg">
<path d="M27.0001 11.4706V24.6479C27.0001 25.2677 26.2978 25.6263 25.796 25.2679L21.6081 22.2804C21.2567 22.0301 20.8433 21.8975 20.4117 21.8975H11.2005C9.57904 21.8975 8.26025 20.5782 8.26025 18.9568V9.29161C8.26025 8.87114 8.6015 8.52989 9.02197 8.52989H24.0598C25.6813 8.52989 27.0001 9.84919 27.0001 11.4706Z" fill="#44977E"/>
<path d="M19.7398 3.38372V13.0489C19.7398 14.6704 18.4205 15.9891 16.7996 15.9891H7.58836C7.15723 15.9891 6.74336 16.1217 6.39195 16.3725L2.20402 19.36C1.70164 19.7188 1 19.3593 1 18.74V5.56224C1 3.94079 2.31879 2.622 3.94023 2.622H18.9781C19.3986 2.622 19.7398 2.96325 19.7398 3.38372Z" fill="#65C9AB"/>
<path d="M16.0399 7.53306C16.0399 7.95403 15.6987 8.29478 15.2782 8.29478H6.47729C6.05683 8.29478 5.71558 7.95403 5.71558 7.53306C5.71558 7.11259 6.05683 6.77134 6.47729 6.77134H15.2782C15.6987 6.77134 16.0399 7.11259 16.0399 7.53306Z" fill="#F0F7FF"/>
<path d="M16.0399 11.0877C16.0399 11.5087 15.6987 11.8495 15.2782 11.8495H6.47729C6.05683 11.8495 5.71558 11.5087 5.71558 11.0877C5.71558 10.6673 6.05683 10.326 6.47729 10.326H15.2782C15.6987 10.326 16.0399 10.6673 16.0399 11.0877Z" fill="#F0F7FF"/>
</svg>
