<svg width="28" height="28" viewBox="0 0 28 28" fill="none" xmlns="http://www.w3.org/2000/svg">
<path d="M4.04057 14.0249C4.04057 17.3652 5.70008 20.3178 8.23953 22.1033C8.68704 22.4181 8.71084 23.0717 8.28099 23.4101L8.26889 23.4196C7.9882 23.6406 7.59465 23.6553 7.30226 23.45C4.33772 21.3679 2.3999 17.9226 2.3999 14.0249C2.3999 7.70287 7.63294 2.57061 13.9423 2.51665V4.15772C8.53847 4.21128 4.04057 8.6086 4.04057 14.0249Z" fill="#1ED688"/>
<path d="M14.2436 1.04916L17.2587 3.11154C17.4202 3.22203 17.4202 3.46027 17.2587 3.57076L14.2436 5.63314C14.0589 5.7595 13.8083 5.62719 13.8083 5.40364V1.27886C13.8083 1.05511 14.0589 0.922998 14.2436 1.04916Z" fill="#1AB975"/>
<path d="M24.0013 13.9753C24.0013 10.6351 22.3416 7.68244 19.8022 5.89697C19.3547 5.58217 19.3309 4.92856 19.7607 4.59015L19.7728 4.58063C20.0535 4.35965 20.4471 4.34497 20.7395 4.55028C23.7042 6.6323 25.6418 10.0777 25.6418 13.9753C25.6418 20.2974 20.4177 25.4296 14.1082 25.4836V23.8425C19.512 23.789 24.0013 19.3918 24.0013 13.9753Z" fill="#1ED688"/>
<path d="M13.7983 26.9511L10.7832 24.8887C10.6217 24.7782 10.6217 24.54 10.7832 24.4295L13.7983 22.3671C13.9828 22.2407 14.2335 22.3731 14.2335 22.5966V26.7214C14.2335 26.9451 13.9828 27.0774 13.7983 26.9511Z" fill="#1AB975"/>
<path d="M19.1389 12.7215L14.2001 16.8173L12.9549 17.85C12.6616 18.093 12.2902 18.2249 11.9125 18.2249C11.8496 18.2249 11.7868 18.2213 11.7233 18.214C11.2827 18.1622 10.8773 17.9285 10.6113 17.5732L8.69071 15.0132C8.25708 14.4349 8.37432 13.6141 8.95275 13.1797C9.53157 12.7461 10.3524 12.8633 10.7862 13.4417L12.0827 15.1705L12.0932 15.1619L17.4673 10.7051C18.0241 10.2437 18.8497 10.3207 19.3113 10.8775C19.7729 11.4343 19.6957 12.2599 19.1389 12.7215Z" fill="#1ED688"/>
<path d="M19.1389 12.7215L14.2001 16.8173C13.3923 16.414 12.682 15.8566 12.0933 15.1619L17.4673 10.7051C18.0241 10.2437 18.8497 10.3207 19.3113 10.8775C19.7729 11.4343 19.6957 12.2599 19.1389 12.7215Z" fill="#35E298"/>
</svg>
