<svg width="28" height="28" viewBox="0 0 28 28" fill="none" xmlns="http://www.w3.org/2000/svg">
<path d="M22.8087 1.18365C16.9417 0.827118 11.0585 0.827118 5.19155 1.18365C2.83624 1.32667 0.95273 3.18407 0.757613 5.5357C0.41449 9.66434 0.414454 13.8143 0.757508 17.943C0.95294 20.2987 2.84272 22.1535 5.20231 22.2959C6.13845 22.3523 7.0751 22.3998 8.01215 22.4384C8.53643 22.4599 9.03303 22.6795 9.40406 23.0505L12.6751 26.3214C13.4069 27.0533 14.5935 27.0533 15.3253 26.3214L18.5963 23.0505C18.9674 22.6795 19.4639 22.46 19.9882 22.4384C20.9248 22.3998 21.8615 22.3524 22.798 22.2959C25.1576 22.1535 27.0474 20.2988 27.2428 17.943C27.5859 13.8144 27.5859 9.6644 27.2427 5.53575C27.0475 3.18407 25.164 1.32667 22.8087 1.18365Z" fill="#9DC6FB"/>
<path d="M15.5608 11.7923L21.8554 15.4265C22.6728 15.8984 23.6945 15.3085 23.6945 14.3646V9.21997C23.6945 8.27608 22.6727 7.6862 21.8554 8.15811L15.5608 11.7923Z" fill="#21386B"/>
<path d="M17.4054 17.0151C14.3675 17.1983 11.3214 17.1983 8.28353 17.0151C7.1373 16.946 6.21588 16.0453 6.11732 14.9012C5.93876 12.8324 5.93876 10.7521 6.11732 8.6834C6.21588 7.53933 7.1373 6.63863 8.28353 6.5695C11.3214 6.38625 14.3675 6.38625 17.4054 6.5695C18.5516 6.63858 19.473 7.53928 19.5716 8.6834C19.7502 10.7521 19.7502 12.8324 19.5716 14.9012C19.473 16.0453 18.5516 16.946 17.4054 17.0151Z" fill="#26457D"/>
<path d="M19.5717 14.9023C19.4723 16.0454 18.5509 16.9455 17.4052 17.0151C14.3673 17.1982 11.3212 17.1982 8.28338 17.0151C7.13763 16.9455 6.21631 16.0454 6.11743 14.9023C6.53087 15.0892 7.0426 15.2066 7.60105 15.2261C11.0955 15.3462 14.5931 15.3462 18.0875 15.2261C18.646 15.2066 19.1583 15.0892 19.5717 14.9023Z" fill="#21386B"/>
<path d="M15.0994 11.0034L12.6718 9.60182C12.0645 9.25119 11.3054 9.68946 11.3054 10.3907V13.1939C11.3054 13.8951 12.0645 14.3333 12.6718 13.9827L15.0994 12.5811C15.7067 12.2306 15.7067 11.3541 15.0994 11.0034Z" fill="white"/>
</svg>
