<svg width="28" height="28" viewBox="0 0 28 28" fill="none" xmlns="http://www.w3.org/2000/svg">
<path d="M22.86 4.69086H3.51723C2.12922 4.69086 1 5.82008 1 7.20813V7.54959C1 8.93759 2.12922 10.0668 3.51723 10.0668H22.8601C23.0711 10.0668 23.242 9.89588 23.242 9.68494V5.07273C23.2419 4.86179 23.071 4.69086 22.86 4.69086Z" fill="#633D31"/>
<path d="M13.1717 3.51654L11.7209 2.06582C11.5718 1.91673 11.33 1.91673 11.1808 2.06582L3.83181 9.41478C3.72258 9.52406 3.68993 9.68824 3.74909 9.83099C3.80815 9.97373 3.94749 10.0668 4.10192 10.0668H7.00341C7.10467 10.0668 7.20181 10.0265 7.27346 9.95494L13.1717 4.0567C13.2433 3.98505 13.2835 3.88796 13.2835 3.78665C13.2835 3.68534 13.2433 3.58824 13.1717 3.51654Z" fill="#78AA17"/>
<path d="M4.93656 8.31004L3.83181 9.41478C3.72258 9.52406 3.68993 9.68824 3.74909 9.83099C3.80815 9.97373 3.94749 10.0668 4.10192 10.0668H7.00341C7.10467 10.0668 7.20181 10.0265 7.27346 9.95494L8.91832 8.31009L4.93656 8.31004Z" fill="#6D8915"/>
<path d="M21.9714 9.41478L14.6225 2.06582C14.4733 1.91673 14.2315 1.91673 14.0823 2.06582L6.73343 9.41478C6.6242 9.52406 6.59154 9.68824 6.6507 9.83099C6.70976 9.97373 6.84911 10.0668 7.00353 10.0668H21.7015C21.8559 10.0668 21.9952 9.97373 22.0543 9.83099C22.1133 9.68824 22.0806 9.52401 21.9714 9.41478Z" fill="#8ACC19"/>
<path d="M19.7998 9.41479L15.7197 5.33461C15.648 5.26301 15.5509 5.22279 15.4496 5.22279C15.3483 5.22279 15.2512 5.26301 15.1795 5.33461C14.9601 5.55409 14.6684 5.67495 14.3581 5.67495C14.0477 5.67495 13.756 5.55414 13.5366 5.33466C13.465 5.26301 13.3678 5.22279 13.2665 5.22279C13.1652 5.22279 13.0681 5.26301 12.9965 5.33461L8.91629 9.41479C8.80706 9.52407 8.7744 9.68824 8.83356 9.83099C8.89262 9.97374 9.03197 10.0668 9.18639 10.0668H19.5298C19.6842 10.0668 19.8235 9.97374 19.8826 9.83099C19.9417 9.68824 19.909 9.52402 19.7998 9.41479Z" fill="#78A017"/>
<path d="M8.91629 9.41478C8.80706 9.52406 8.7744 9.68824 8.83356 9.83099C8.89262 9.97373 9.03197 10.0668 9.18639 10.0668H19.5298C19.6842 10.0668 19.8235 9.97373 19.8826 9.83099C19.9417 9.68824 19.9091 9.52406 19.7999 9.41478L18.6951 8.31004H10.021L8.91629 9.41478Z" fill="#6D8915"/>
<path d="M25.233 9.30296H7.0645H3.68795H3.06517C1.9685 9.30296 1.0715 8.44989 1.00041 7.37119C1.00036 7.37373 1 7.37627 1 7.37896V7.37901V23.4426C1 24.9248 2.2058 26.1306 3.68795 26.1306H25.2331C25.444 26.1306 25.6149 25.9597 25.6149 25.7487V9.68484C25.6149 9.47394 25.444 9.30296 25.233 9.30296Z" fill="#A87B6C"/>
<path d="M25.6148 15.8625H21.5044C19.9691 15.8625 18.72 17.1115 18.72 18.6469C18.72 20.1822 19.969 21.4313 21.5044 21.4313H25.6148V15.8625Z" fill="#633D31"/>
<path d="M25.8543 14.8817H21.5044C19.9691 14.8817 18.72 16.1308 18.72 17.6661C18.72 19.2014 19.969 20.4505 21.5044 20.4505H25.8543C26.486 20.4505 27 19.9366 27 19.3048V16.0275C27 15.3956 26.486 14.8817 25.8543 14.8817Z" fill="#D18155"/>
<path d="M21.8277 16.4203C21.1409 16.4203 20.582 16.9792 20.582 17.666C20.582 18.3529 21.1409 18.9117 21.8277 18.9117C22.5146 18.9117 23.0735 18.3529 23.0735 17.666C23.0735 16.9792 22.5146 16.4203 21.8277 16.4203Z" fill="#F6E266"/>
</svg>
