<svg width="24" height="24" viewBox="0 0 24 24" fill="none" xmlns="http://www.w3.org/2000/svg">
<path fill-rule="evenodd" clip-rule="evenodd" d="M18.2222 12.5833C18.6518 12.5833 19 12.2351 19 11.8055C19 11.376 18.6518 11.0278 18.2222 11.0278H12.5831V5.77778C12.5831 5.34822 12.2349 5 11.8053 5C11.3758 5 11.0276 5.34822 11.0276 5.77778V11.0278L5.77778 11.0278C5.34822 11.0278 5 11.376 5 11.8055C5 12.2351 5.34822 12.5833 5.77778 12.5833L11.0276 12.5833L11.0276 18.2222C11.0276 18.6518 11.3758 19 11.8053 19C12.2349 19 12.5831 18.6518 12.5831 18.2222L12.5831 12.5833H18.2222Z" fill="#F43E71"/>
<path d="M12.0011 22.9908C7.91452 22.9908 4.53343 21.8913 2.96658 20.0954C0.346003 17.0625 0.346003 6.90087 2.95742 3.89546C4.53343 2.09954 7.90535 1 12.0011 1C16.0969 1 19.4689 2.09954 21.0357 3.89546C23.6563 6.92836 23.6563 17.09 21.0357 20.1045C19.4597 21.9005 16.0878 23 12.0011 23V22.9908Z" stroke="#F43E71" stroke-width="1.5" stroke-miterlimit="10"/>
</svg>
