<svg width="24" height="24" viewBox="0 0 24 24" fill="none" xmlns="http://www.w3.org/2000/svg">
<path fill-rule="evenodd" clip-rule="evenodd" d="M4.45175 1.75C2.96243 1.75 1.75 2.96243 1.75 4.45175V21.922C1.75 22.038 1.88335 22.1069 1.97758 22.0396L6.89424 18.5323C7.43388 18.1471 8.07208 17.9427 8.73455 17.9427H19.5482C21.0371 17.9427 22.25 16.7301 22.25 15.2409V1.89424C22.25 1.81483 22.1852 1.75 22.1058 1.75H4.45175ZM0.25 4.45175C0.25 2.13401 2.13401 0.25 4.45175 0.25H22.1058C23.0136 0.25 23.75 0.986405 23.75 1.89424V15.2409C23.75 17.5587 21.8653 19.4427 19.5482 19.4427H8.73455C8.38474 19.4427 8.0512 19.5494 7.76576 19.7532L2.8494 23.2603C2.84928 23.2603 2.84952 23.2602 2.8494 23.2603C1.7641 24.035 0.25 23.26 0.25 21.922V4.45175Z" fill="#666666"/>
<rect x="6" y="7" width="12" height="1.5" rx="0.75" fill="#666666"/>
<rect x="6" y="11.5" width="12" height="1.5" rx="0.75" fill="#666666"/>
</svg>
