<svg width="24" height="24" viewBox="0 0 24 24" fill="none" xmlns="http://www.w3.org/2000/svg">
<path d="M23 9.1335V10.1141V10.2514C22.8758 11.5341 22.4306 12.7649 21.7056 13.8304C20.9561 14.9698 20.0556 16.0022 19.0287 16.8997C17.0087 18.7039 14.9593 20.4788 12.9099 22.2536C12.7872 22.3709 12.6426 22.4626 12.4843 22.5236C12.3261 22.5846 12.1573 22.6137 11.9877 22.6091C11.8181 22.6046 11.6511 22.5665 11.4964 22.497C11.3416 22.4276 11.2021 22.3283 11.086 22.2046C9.51705 20.8612 7.94813 19.5178 6.39882 18.1646C5.04666 17.0495 3.82021 15.7902 2.74126 14.409C1.91224 13.3694 1.35609 12.1391 1.12331 10.8299C0.930442 9.82613 0.96417 8.79197 1.22203 7.80292C1.4799 6.81387 1.95539 5.8949 2.61379 5.11309C3.25419 4.33225 4.08875 3.73368 5.03368 3.37739C5.9786 3.02111 7.00064 2.9197 7.99716 3.08335C9.33884 3.27562 10.5652 3.94804 11.4488 4.97586C11.6449 5.19159 11.8312 5.41712 12.0273 5.65246L12.3019 5.30922L12.5961 4.96604C13.3318 4.1047 14.311 3.48633 15.405 3.19228C16.4989 2.89823 17.6563 2.94229 18.7247 3.31868C19.7489 3.63644 20.6688 4.22367 21.3882 5.01895C22.1076 5.81423 22.5999 6.78829 22.8137 7.83913C22.8921 8.26078 22.9314 8.70204 23 9.1335Z" fill="#F43E71"/>
</svg>
