<svg width="24" height="24" viewBox="0 0 24 24" fill="none" xmlns="http://www.w3.org/2000/svg">
<path fill-rule="evenodd" clip-rule="evenodd" d="M15.2736 2.06491C17.6062 1.76486 19.6903 2.5066 21.2564 4.3288L21.2594 4.33235C22.8052 6.14221 23.2244 8.28668 22.8943 10.4693L22.894 10.4709C22.6679 11.9553 21.9958 13.1905 21.2134 14.2343C20.2034 15.5944 18.9915 16.7054 17.8429 17.7065L17.8409 17.7082C16.4913 18.8804 15.1118 20.0673 13.7571 21.2296L13.7538 21.2324C13.2932 21.6252 12.6912 21.9255 11.9816 21.9229C11.2743 21.9203 10.6794 21.6176 10.2292 21.2251C8.87664 20.0647 7.5063 18.8868 6.15824 17.7159L6.15627 17.7142C5.00312 16.7091 3.79414 15.5922 2.78619 14.2426L2.78444 14.2402C2.00526 13.1926 1.33197 11.9581 1.10534 10.48L1.10488 10.477C0.773599 8.28689 1.20605 6.15452 2.7448 4.34308L2.74738 4.34004C4.31155 2.50858 6.40649 1.78296 8.72716 2.07184L8.73262 2.07252C10.0439 2.24062 11.1239 2.8109 12.009 3.58396C12.8914 2.83156 13.9941 2.23 15.2736 2.06491ZM11.3005 4.26681C11.2995 4.26782 11.2986 4.26883 11.2977 4.26984L12.4034 5.28343C12.18 5.52716 11.8151 5.5369 11.598 5.28755C11.5721 5.25775 11.5457 5.22819 11.5188 5.19881C10.7111 4.32189 9.74187 3.71419 8.54187 3.56035C6.68802 3.32958 5.1034 3.89112 3.88801 5.3142C2.67262 6.74497 2.31108 8.4219 2.58801 10.2527C2.76493 11.4065 3.2957 12.4142 3.98801 13.345C4.89571 14.5604 6.0034 15.5911 7.14187 16.5835C8.48802 17.7527 9.85726 18.9296 11.2111 20.0912C11.7111 20.5296 12.2573 20.5373 12.7803 20.0912C14.1342 18.9296 15.5111 17.745 16.8573 16.5758C17.9957 15.5835 19.1034 14.5604 20.0111 13.3373C20.7034 12.4142 21.2342 11.4065 21.4111 10.245C21.6881 8.41421 21.3342 6.72959 20.1188 5.30651C18.8957 3.88343 17.3188 3.31419 15.465 3.55266C14.2727 3.7065 13.2188 4.39881 12.4034 5.28343L11.3005 4.26681Z" fill="#666666"/>
</svg>
