<svg width="30" height="30" viewBox="0 0 30 30" fill="none" xmlns="http://www.w3.org/2000/svg">
<path d="M28.4528 12.9791L25.4981 24.8105C25.3052 25.5702 24.8648 26.2441 24.2464 26.7258C23.6281 27.2076 22.8669 27.4697 22.0831 27.4709H9.68896V10.4337C10.4795 9.72985 11.1797 8.93074 11.7737 8.05466C12.6546 6.78387 13.3162 5.37442 13.731 3.88489C13.9473 3.13059 14.4017 2.46645 15.0264 1.99158C15.6511 1.51671 16.4126 1.25658 17.1973 1.25001C17.7139 1.24904 18.2245 1.35936 18.6946 1.57345C19.1647 1.78754 19.5832 2.10039 19.9215 2.4907C20.2567 2.88151 20.5053 3.33891 20.6508 3.83276C20.7963 4.32661 20.8356 4.8457 20.7659 5.35582L20.062 10.2035H26.2785C26.6185 10.2026 26.9542 10.2793 27.2601 10.4278C27.566 10.5762 27.834 10.7925 28.0436 11.0602C28.2533 11.3278 28.3992 11.6398 28.4701 11.9723C28.541 12.3048 28.535 12.6492 28.4528 12.9791Z" fill="#F43E71"/>
<path d="M6.17151 8.92432H3.61337C2.37715 8.92432 1.375 9.92647 1.375 11.1627V26.5115C1.375 27.7477 2.37715 28.7499 3.61337 28.7499H6.17151C7.40773 28.7499 8.40988 27.7477 8.40988 26.5115V11.1627C8.40988 9.92647 7.40773 8.92432 6.17151 8.92432Z" fill="#F43E71"/>
</svg>
