<?xml version="1.0" encoding="utf-8"?>
<!-- Generator: Adobe Illustrator 27.5.0, SVG Export Plug-In . SVG Version: 6.00 Build 0)  -->
<svg version="1.1" id="圖層_1" xmlns="http://www.w3.org/2000/svg" xmlns:xlink="http://www.w3.org/1999/xlink" x="0px" y="0px"
	 viewBox="0 0 24 24" style="enable-background:new 0 0 24 24;" xml:space="preserve">
<style type="text/css">
	.st0{fill:#FFFFFF;}
</style>
<path class="st0" d="M22.8,10.4l-2.4,9.5c-0.2,0.6-0.5,1.1-1,1.5c-0.5,0.4-1.1,0.6-1.7,0.6H7.8V8.3c0.6-0.6,1.2-1.2,1.7-1.9
	c0.7-1,1.2-2.1,1.6-3.3c0.2-0.6,0.5-1.1,1-1.5C12.5,1.2,13.1,1,13.8,1c0.4,0,0.8,0.1,1.2,0.3c0.4,0.2,0.7,0.4,1,0.7
	c0.3,0.3,0.5,0.7,0.6,1.1c0.1,0.4,0.1,0.8,0.1,1.2L16,8.2h5c0.3,0,0.5,0.1,0.8,0.2c0.2,0.1,0.5,0.3,0.6,0.5c0.2,0.2,0.3,0.5,0.3,0.7
	C22.8,9.8,22.8,10.1,22.8,10.4z"/>
<path class="st0" d="M4.9,7.1h-2c-1,0-1.8,0.8-1.8,1.8v12.3c0,1,0.8,1.8,1.8,1.8h2c1,0,1.8-0.8,1.8-1.8V8.9C6.7,7.9,5.9,7.1,4.9,7.1
	z"/>
</svg>
