<svg width="20" height="20" viewBox="0 0 20 20" fill="none" xmlns="http://www.w3.org/2000/svg">
<path fill-rule="evenodd" clip-rule="evenodd" d="M19 10.8332C19.5523 10.8332 20 10.3855 20 9.83322L20 9.61099C20 9.05871 19.5523 8.61099 19 8.61099L10.8329 8.61099L10.8329 1C10.8329 0.447715 10.3852 0 9.83287 0L9.61065 0C9.05836 0 8.61065 0.447715 8.61065 1L8.61065 8.61099L1 8.61099C0.447716 8.61099 0 9.05871 0 9.611L0 9.83322C0 10.3855 0.447716 10.8332 1 10.8332L8.61065 10.8332L8.61065 19C8.61065 19.5523 9.05836 20 9.61065 20H9.83287C10.3852 20 10.8329 19.5523 10.8329 19L10.8329 10.8332L19 10.8332Z" fill="#9BB3BB"/>
</svg>
