<svg width="24" height="24" viewBox="0 0 24 24" fill="none" xmlns="http://www.w3.org/2000/svg">
<path d="M9.98685 21.1958C9.56004 21.1182 9.14294 21.0018 8.72583 20.8757" stroke="black" stroke-width="1.5" stroke-miterlimit="10" stroke-linecap="round"/>
<path d="M6.18453 19.6243C5.39881 19.0908 4.6907 18.4506 4.07959 17.7231" stroke="black" stroke-width="1.5" stroke-miterlimit="10" stroke-linecap="round"/>
<path d="M2.57606 15.3272C2.18806 14.4638 1.92615 13.5423 1.80005 12.6111" stroke="black" stroke-width="1.5" stroke-miterlimit="10" stroke-linecap="round"/>
<path d="M1.80005 9.76896C1.92615 8.82805 2.18806 7.91623 2.57606 7.04321" stroke="black" stroke-width="1.5" stroke-miterlimit="10" stroke-linecap="round"/>
<path d="M4.07007 4.64727C4.68118 3.91975 5.38929 3.27954 6.16531 2.74603" stroke="black" stroke-width="1.5" stroke-miterlimit="10" stroke-linecap="round"/>
<path d="M8.72583 1.4947C8.92953 1.35889 9.14294 1.25219 9.35634 1.17459" stroke="black" stroke-width="1.5" stroke-miterlimit="10" stroke-linecap="round"/>
<path d="M14.4299 18.5961L13.0427 21.6129L16.0595 23" stroke="black" stroke-width="1.5" stroke-linecap="round" stroke-linejoin="round"/>
<path d="M12.3054 1C17.7375 1.2134 22.0832 5.69489 22.0832 11.1852C22.0832 16.1129 18.5717 20.3034 13.7798 21.2055" stroke="black" stroke-width="1.5" stroke-miterlimit="10" stroke-linecap="round"/>
<path d="M16.2533 11.1852L9.71533 7.41182V14.9683L16.2533 11.1949V11.1852Z" stroke="black" stroke-width="1.5" stroke-linecap="round" stroke-linejoin="round"/>
</svg>
