<svg width="30" height="28" viewBox="0 0 30 28" fill="none" xmlns="http://www.w3.org/2000/svg">
<path d="M17.1936 15.3103C17.6289 14.6874 18.0266 14.102 18.4319 13.5166C18.6195 13.2464 18.7996 12.9762 18.9873 12.7061C19.6552 11.7679 20.8635 11.7604 21.524 12.7136C22.6497 14.3271 23.753 15.9557 24.8712 17.5768C26.4698 19.9034 28.0684 22.23 29.667 24.5565C30.1098 25.202 30.1098 25.9149 29.6745 26.4478C29.3968 26.793 29.029 26.9807 28.5862 27.0107C28.4662 27.0182 28.3536 27.0107 28.2335 27.0107C19.4076 27.0107 10.5816 27.0107 1.75568 27.0107C1.47049 27.0107 1.16279 26.9807 0.900109 26.8756C0.0670489 26.5454 -0.240658 25.5922 0.20214 24.7592C0.877594 23.4908 1.56806 22.2225 2.25852 20.9616C4.78772 16.286 7.32443 11.6103 9.85363 6.94217C10.2514 6.20668 10.8593 5.89897 11.5798 6.05658C12.0901 6.16915 12.4129 6.49938 12.6455 6.94217C14.064 9.56894 15.4899 12.1957 16.9084 14.8225C16.9909 14.9726 17.0735 15.1227 17.1861 15.3178L17.1936 15.3103Z" fill="#AAAAAA"/>
<path d="M24.0232 0C26.4999 0 28.5112 2.02636 28.5112 4.51053C28.5112 7.00221 26.4698 9.02107 23.9782 9.00606C21.509 8.99105 19.5052 6.95718 19.5127 4.48051C19.5127 2.00385 21.539 0 24.0232 0Z" fill="#AAAAAA"/>
</svg>
