<svg width="24" height="24" viewBox="0 0 24 24" fill="none" xmlns="http://www.w3.org/2000/svg">
<g clip-path="url(#clip0_2380_5491)">
<g clip-path="url(#clip1_2380_5491)">
<path d="M19.5001 16.1C19.0401 16.1 18.6201 15.77 18.5201 15.3L16.1401 3.75C16.0001 3.09 15.4101 2.6 14.7301 2.6C14.4301 2.6 14.1501 2.69 13.9101 2.86C12.7201 3.7 11.1101 3.7 9.92005 2.86C9.68005 2.69 9.39005 2.6 9.10005 2.6C8.42005 2.6 7.83005 3.09 7.69005 3.76L5.49005 15.29C5.39005 15.83 4.87005 16.18 4.32005 16.08C3.78005 15.98 3.42005 15.45 3.53005 14.91L5.72005 3.36C6.06005 1.75 7.48005 0.599998 9.09005 0.599998C9.80005 0.599998 10.4801 0.819998 11.0601 1.22C11.5701 1.58 12.2501 1.58 12.7601 1.22C13.3401 0.809998 14.0201 0.599998 14.7301 0.599998C16.3501 0.599998 17.7701 1.75 18.1001 3.34L20.4801 14.9C20.5901 15.44 20.2401 15.97 19.7001 16.08C19.6301 16.09 19.5601 16.1 19.5001 16.1Z" fill="#F43E71"/>
<path d="M15.75 23.27H8.25C3.7 23.27 0 19.56 0 15.02C0 13.77 0.96 12.81 2.14 12.81C2.84 12.81 3.5 13.15 3.9 13.73C4.99 15.31 6.78 16.24 8.69 16.24H15.31C17.22 16.24 19.02 15.3 20.1 13.73C20.5 13.15 21.16 12.81 21.86 12.81C23.04 12.81 24 13.77 24 14.95C24 19.57 20.3 23.27 15.75 23.27ZM2.14 14.81C2.06 14.81 2 14.87 2 14.95C2 18.46 4.8 21.27 8.25 21.27H15.75C19.2 21.27 22 18.47 22 15.02C22 14.79 21.82 14.77 21.75 14.87C20.29 16.99 17.88 18.25 15.31 18.25H8.69C6.12 18.25 3.71 16.99 2.25 14.87C2.22 14.83 2.18 14.81 2.14 14.81Z" fill="#F43E71"/>
<path d="M12 12.6C12.55 12.6 13 12.15 13 11.6C13 11.05 12.55 10.6 12 10.6V12.6ZM5 12.6H12V10.6H5V12.6Z" fill="#F43E71"/>
</g>
</g>
<defs>
<clipPath id="clip0_2380_5491">
<rect width="24" height="24" fill="white"/>
</clipPath>
<clipPath id="clip1_2380_5491">
<rect width="24" height="22.67" fill="white" transform="translate(0 0.599998)"/>
</clipPath>
</defs>
</svg>
