<svg width="24" height="24" viewBox="0 0 24 24" fill="none" xmlns="http://www.w3.org/2000/svg">
<g clip-path="url(#clip0_2380_5492)">
<path fill-rule="evenodd" clip-rule="evenodd" d="M5.5 2.5C3.84315 2.5 2.5 3.84315 2.5 5.5V18.5C2.5 20.1569 3.84315 21.5 5.5 21.5H21.1073C20.1798 20.8008 19.7853 19.6818 19.606 18.8849C19.495 18.3918 19.4464 17.9339 19.425 17.5983C19.4142 17.4292 19.4101 17.288 19.4088 17.1849C19.4075 17.0918 19.4088 17.0001 19.4088 17.0225V5.5C19.4088 3.84315 18.0656 2.5 16.4087 2.5H5.5ZM5.5 23.5C2.73858 23.5 0.5 21.2614 0.5 18.5V5.5C0.5 2.73858 2.73858 0.5 5.5 0.5H16.4087C19.1702 0.5 21.4088 2.73858 21.4088 5.5V17.0225C21.4088 17.024 21.4087 17.027 21.4087 17.0312C21.4076 17.1171 21.3995 17.7454 21.5572 18.4457C21.7349 19.2355 22.0497 19.7918 22.4747 20.0043C23.2394 20.3867 23.6421 21.2467 23.4377 22.0847C23.2412 22.9268 22.494 23.496 21.66 23.5L5.5 23.5Z" fill="#F43E71"/>
<path d="M9.25 8.94067C8.55965 8.94067 8 9.50032 8 10.1907C8 10.881 8.55965 11.4407 9.25 11.4407C9.94035 11.4407 10.5 10.881 10.5 10.1907C10.5 9.50032 9.94035 8.94067 9.25 8.94067Z" fill="#F43E71"/>
<path d="M12.8093 8.94067C12.119 8.94067 11.5593 9.50032 11.5593 10.1907C11.5593 10.881 12.119 11.4407 12.8093 11.4407C13.4997 11.4407 14.0593 10.881 14.0593 10.1907C14.0593 9.50032 13.4997 8.94067 12.8093 8.94067Z" fill="#F43E71"/>
<path d="M9.25 12.5C8.55965 12.5 8 13.0597 8 13.75C8 14.4403 8.55965 15 9.25 15C9.94035 15 10.5 14.4403 10.5 13.75C10.5 13.0597 9.94035 12.5 9.25 12.5Z" fill="#F43E71"/>
<path d="M12.8093 12.5C12.119 12.5 11.5593 13.0597 11.5593 13.75C11.5593 14.4403 12.119 15 12.8093 15C13.4997 15 14.0593 14.4403 14.0593 13.75C14.0593 13.0597 13.4997 12.5 12.8093 12.5Z" fill="#F43E71"/>
</g>
<defs>
<clipPath id="clip0_2380_5492">
<rect width="24" height="24" fill="white"/>
</clipPath>
</defs>
</svg>
