<svg width="24" height="24" viewBox="0 0 24 24" fill="none" xmlns="http://www.w3.org/2000/svg">
<path d="M12.0286 1C7.05206 1 3 4.73083 3 9.36917V21.3225C3 22.23 3.81631 23 4.79982 23C5.78334 23 6.59965 22.2392 6.59965 21.3225V20.415C6.59965 19.5075 7.41596 18.7375 8.39947 18.7375C9.38298 18.7375 10.1993 19.4983 10.1993 20.415V21.3225C10.1993 22.23 11.0156 23 11.9991 23C12.9826 23 13.7989 22.2392 13.7989 21.3225V20.415C13.7989 19.5075 14.6153 18.7375 15.5988 18.7375C16.5823 18.7375 17.3986 19.4983 17.3986 20.415V21.3225C17.3986 22.23 18.2149 23 19.1984 23C20.1819 23 20.9982 22.2392 20.9982 21.3225V9.36917C21.0966 4.73083 17.0445 1 12.068 1H12.0286Z" fill="#FFEBEB"/>
<path fill-rule="evenodd" clip-rule="evenodd" d="M2 9.36917C2 4.1066 6.57459 0 12.0286 0H12.068C17.5122 0 22.1037 4.1007 21.9982 9.37944V21.3225C21.9982 22.8566 20.6668 24 19.1984 24C17.7264 24 16.3986 22.844 16.3986 21.3225V20.415C16.3986 20.1157 16.0975 19.7375 15.5988 19.7375C15.1037 19.7375 14.7989 20.1215 14.7989 20.415V21.3225C14.7989 22.8566 13.4675 24 11.9991 24C10.5271 24 9.1993 22.844 9.1993 21.3225V20.415C9.1993 20.1157 8.89816 19.7375 8.39947 19.7375C7.90444 19.7375 7.59965 20.1215 7.59965 20.415V21.3225C7.59965 22.8566 6.26816 24 4.79982 24C3.32784 24 2 22.844 2 21.3225V9.36917ZM12.0286 2C7.52954 2 4 5.35507 4 9.36917V21.3225C4 21.616 4.30479 22 4.79982 22C5.29851 22 5.59965 21.6218 5.59965 21.3225V20.415C5.59965 18.8935 6.92749 17.7375 8.39947 17.7375C9.86781 17.7375 11.1993 18.8809 11.1993 20.415V21.3225C11.1993 21.616 11.5041 22 11.9991 22C12.4978 22 12.7989 21.6218 12.7989 21.3225V20.415C12.7989 18.8935 14.1268 17.7375 15.5988 17.7375C17.0671 17.7375 18.3986 18.8809 18.3986 20.415V21.3225C18.3986 21.616 18.7034 22 19.1984 22C19.6971 22 19.9982 21.6218 19.9982 21.3225V9.36917L19.9985 9.34797C20.0831 5.35531 16.5731 2 12.068 2H12.0286Z" fill="#F43E71"/>
<path fill-rule="evenodd" clip-rule="evenodd" d="M11 15H4V13H11C11.5523 13 12 13.4477 12 14C12 14.5523 11.5523 15 11 15Z" fill="#F43E71"/>
</svg>
