<?xml version="1.0" encoding="utf-8"?>
<!-- Generator: Adobe Illustrator 27.5.0, SVG Export Plug-In . SVG Version: 6.00 Build 0)  -->
<svg version="1.1" id="圖層_1" xmlns="http://www.w3.org/2000/svg" xmlns:xlink="http://www.w3.org/1999/xlink" x="0px" y="0px"
	 viewBox="0 0 24 24" style="enable-background:new 0 0 24 24;" xml:space="preserve">
<style type="text/css">
	.st0{fill:#F43E71;}
</style>
<g>
	<path class="st0" d="M12.1,23.5c-1.5,0-3.1-0.6-4.2-1.7l-5.6-5.6c-1.2-1.2-1.8-2.8-1.7-4.5l0.3-6.2c0.1-2.5,2.1-4.5,4.6-4.6
		l6.2-0.3c1.7-0.1,3.3,0.6,4.5,1.8l5.6,5.6c2.3,2.3,2.3,6.1,0,8.5c0,0,0,0,0,0l-5.4,5.4C15.2,22.9,13.6,23.5,12.1,23.5z M11.9,2.5
		c-0.1,0-0.1,0-0.2,0L5.5,2.8C4,2.9,2.9,4,2.8,5.5l-0.3,6.2c-0.1,1.1,0.4,2.2,1.2,3l5.6,5.6c1.6,1.5,4.1,1.5,5.6,0l5.4-5.4
		c1.5-1.6,1.5-4.1,0-5.6l-5.6-5.6C14,2.9,13,2.5,11.9,2.5z"/>
	<path class="st0" d="M9.3,11.3c-1.1,0-2-0.9-2-2c0-1.1,0.9-2,2-2s2,0.9,2,2C11.3,10.4,10.4,11.3,9.3,11.3z"/>
	<path class="st0" d="M13.5,18.2c-0.3,0-0.5-0.1-0.7-0.3c-0.4-0.4-0.4-1,0-1.4l3.7-3.7c0.4-0.4,1-0.4,1.4,0s0.4,1,0,1.4l-3.7,3.7
		C14,18.1,13.8,18.2,13.5,18.2z"/>
</g>
</svg>
