<svg width="24" height="24" viewBox="0 0 24 24" fill="none" xmlns="http://www.w3.org/2000/svg">
<g clip-path="url(#clip0_2380_5495)">
<path fill-rule="evenodd" clip-rule="evenodd" d="M0 18.339C0 21.4655 2.5345 24 5.66102 24H18.339C21.4655 24 24 21.4655 24 18.339V10.4958C24 8.74032 23.2007 7.06148 21.7887 5.98453C21.3495 5.6496 20.722 5.73407 20.3871 6.1732C20.0522 6.61234 20.1366 7.23984 20.5758 7.57478C21.4757 8.26119 22 9.34372 22 10.4958V18.339C22 20.3609 20.3609 22 18.339 22H5.66102C3.63907 22 2 20.3609 2 18.339V10.4958C2 9.35391 2.53284 8.27736 3.44077 7.5849L9.77978 2.75006C11.091 1.74998 12.909 1.74998 14.2202 2.75006L17.7329 5.42682C18.0352 5.65723 18.4421 5.69627 18.7828 5.52757C19.1234 5.35886 19.339 5.01159 19.339 4.63144V1.55931C19.339 1.00702 18.8913 0.559311 18.339 0.559311C17.7867 0.559311 17.339 1.00702 17.339 1.55931V2.61214L15.4331 1.15981C15.433 1.15973 15.4332 1.1599 15.4331 1.15981C13.4056 -0.386347 10.5943 -0.386518 8.56688 1.15981L2.22792 5.99463C0.823895 7.06544 0 8.73012 0 10.4958V18.339Z" fill="#F43E71"/>
<path fill-rule="evenodd" clip-rule="evenodd" d="M8 15H1V13H8C8.55228 13 9 13.4477 9 14C9 14.5523 8.55228 15 8 15Z" fill="#F43E71"/>
</g>
<defs>
<clipPath id="clip0_2380_5495">
<rect width="24" height="24" fill="white"/>
</clipPath>
</defs>
</svg>
