<svg width="24" height="24" viewBox="0 0 24 24" fill="none" xmlns="http://www.w3.org/2000/svg">
<path d="M10.1096 11.5462C9.38635 11.5462 8.80005 12.1325 8.80005 12.8557C8.80005 13.579 9.38635 14.1653 10.1096 14.1653C10.8328 14.1653 11.4191 13.579 11.4191 12.8557C11.4191 12.1325 10.8328 11.5462 10.1096 11.5462Z" fill="#F43E71"/>
<path d="M13.8383 11.5462C13.1151 11.5462 12.5288 12.1325 12.5288 12.8557C12.5288 13.579 13.1151 14.1653 13.8383 14.1653C14.5616 14.1653 15.1479 13.579 15.1479 12.8557C15.1479 12.1325 14.5616 11.5462 13.8383 11.5462Z" fill="#F43E71"/>
<path d="M10.1096 15.275C9.38635 15.275 8.80005 15.8613 8.80005 16.5846C8.80005 17.3078 9.38635 17.8941 10.1096 17.8941C10.8328 17.8941 11.4191 17.3078 11.4191 16.5846C11.4191 15.8613 10.8328 15.275 10.1096 15.275Z" fill="#F43E71"/>
<path d="M13.8383 15.275C13.1151 15.275 12.5288 15.8613 12.5288 16.5846C12.5288 17.3078 13.1151 17.8941 13.8383 17.8941C14.5616 17.8941 15.1479 17.3078 15.1479 16.5846C15.1479 15.8613 14.5616 15.275 13.8383 15.275Z" fill="#F43E71"/>
<path fill-rule="evenodd" clip-rule="evenodd" d="M0.5 12.5C0.5 6.14588 5.64588 1 12 1H12.0101C12.467 1 12.9125 1.10545 13.2755 1.38579C13.646 1.67204 13.8133 2.04976 13.8782 2.36586C13.9402 2.6677 13.9165 2.94005 13.8893 3.11266C13.8749 3.20399 13.8572 3.28109 13.8422 3.33829C13.8363 3.36109 13.8306 3.38119 13.8256 3.39828C13.5746 4.45158 13.5514 6.0373 15.2731 7.40217C15.8055 7.82257 16.1551 7.80468 16.2901 7.75918C16.3976 7.72297 16.6241 7.58213 16.731 7.06154V7.03587L16.7462 6.94965C16.8071 6.6043 16.969 6.24476 17.2527 5.9547C17.5116 5.68032 17.8477 5.49235 18.199 5.39868C18.5589 5.30004 18.9393 5.30425 19.2916 5.39696L19.3048 5.40042L19.3048 5.40051C19.6268 5.48998 19.9266 5.65841 20.1694 5.88203C20.1976 5.90347 20.234 5.93172 20.2775 5.96672C20.3749 6.04502 20.5086 6.15746 20.6665 6.30313C20.9813 6.59366 21.3971 7.02108 21.813 7.57842C22.6432 8.69097 23.5 10.3592 23.5 12.5C23.5 18.8541 18.3541 24 12 24C5.64588 24 0.5 18.8541 0.5 12.5ZM11.8647 3.00094C6.6776 3.07324 2.5 7.29563 2.5 12.5C2.5 17.7495 6.75045 22 12 22C17.2495 22 21.5 17.7495 21.5 12.5C21.5 10.9146 20.8684 9.65666 20.2101 8.77452C19.8818 8.33452 19.5534 7.99747 19.3101 7.77287C19.1888 7.66097 19.09 7.57819 19.0246 7.52565C18.992 7.49941 18.9678 7.48082 18.9535 7.47002L18.9398 7.45977L18.9397 7.45972C18.9387 7.45899 18.9384 7.45875 18.9387 7.45901L18.8746 7.41317L18.816 7.35465C18.8129 7.35154 18.8055 7.34521 18.7944 7.33871C18.7865 7.3341 18.7796 7.33106 18.7746 7.32922C18.7641 7.32706 18.7539 7.32606 18.7448 7.32606C18.734 7.32606 18.7281 7.32743 18.7276 7.32755C18.7276 7.32755 18.7276 7.32755 18.7276 7.32755L18.7152 7.33101C18.5294 8.40457 17.9326 9.31608 16.929 9.65439C15.9452 9.98605 14.8977 9.65428 14.033 8.97133L14.0318 8.97034C11.5335 6.99058 11.5179 4.52909 11.8647 3.00094ZM12.1247 3.00972C12.1247 3.00974 12.124 3.00955 12.1226 3.00911Z" fill="#F43E71"/>
</svg>
