<svg width="21" height="20" viewBox="0 0 21 20" fill="none" xmlns="http://www.w3.org/2000/svg">
<path d="M15.5901 6.66675C16.9708 6.66675 18.0901 5.54746 18.0901 4.16675C18.0901 2.78604 16.9708 1.66675 15.5901 1.66675C14.2094 1.66675 13.0901 2.78604 13.0901 4.16675C13.0901 5.54746 14.2094 6.66675 15.5901 6.66675Z" stroke="#D1D5DB" stroke-width="1.66667" stroke-linecap="round" stroke-linejoin="round"/>
<path d="M5.59009 12.5C6.9708 12.5 8.09009 11.3807 8.09009 10C8.09009 8.61929 6.9708 7.5 5.59009 7.5C4.20938 7.5 3.09009 8.61929 3.09009 10C3.09009 11.3807 4.20938 12.5 5.59009 12.5Z" stroke="#D1D5DB" stroke-width="1.66667" stroke-linecap="round" stroke-linejoin="round"/>
<path d="M15.5901 18.3333C16.9708 18.3333 18.0901 17.214 18.0901 15.8333C18.0901 14.4525 16.9708 13.3333 15.5901 13.3333C14.2094 13.3333 13.0901 14.4525 13.0901 15.8333C13.0901 17.214 14.2094 18.3333 15.5901 18.3333Z" stroke="#D1D5DB" stroke-width="1.66667" stroke-linecap="round" stroke-linejoin="round"/>
<path d="M7.74854 11.2583L13.4402 14.575" stroke="#D1D5DB" stroke-width="1.66667" stroke-linecap="round" stroke-linejoin="round"/>
<path d="M13.4319 5.42505L7.74854 8.74172" stroke="#D1D5DB" stroke-width="1.66667" stroke-linecap="round" stroke-linejoin="round"/>
</svg>
