<svg width="17" height="21" viewBox="0 0 17 21" fill="none" xmlns="http://www.w3.org/2000/svg">
<path d="M6.51367 2.74414C6.80078 2.08789 7.22266 1.56934 7.7793 1.18848C8.33594 0.807617 8.94824 0.617188 9.61621 0.617188L9.60742 0.608398C9.98242 0.608398 10.3545 0.672852 10.7236 0.801758C11.2744 0.983398 11.6904 1.22656 11.9717 1.53125C12.2588 1.83594 12.4609 2.11719 12.5781 2.375C12.8594 2.9668 12.9531 3.59668 12.8594 4.26465C12.7656 4.93262 12.6133 5.56836 12.4023 6.17188C12.4844 6.17773 12.5664 6.18066 12.6484 6.18066C12.7305 6.18066 12.8125 6.18066 12.8945 6.18066C13.4688 6.18066 13.9902 6.32129 14.459 6.60254C14.9336 6.88379 15.3086 7.25879 15.584 7.72754C15.8652 8.19629 16.0059 8.71777 16.0059 9.29199C16.0059 9.59082 15.9648 9.88379 15.8828 10.1709C16.416 10.7334 16.6826 11.4014 16.6826 12.1748C16.6826 12.8135 16.501 13.3848 16.1377 13.8887C16.3135 14.2754 16.4014 14.6943 16.4014 15.1455C16.4014 15.5557 16.3252 15.9453 16.1729 16.3145C16.0205 16.6836 15.8066 17.0088 15.5312 17.29C15.5547 17.4424 15.5664 17.5801 15.5664 17.7031C15.5664 18.2422 15.4404 18.7373 15.1885 19.1885C14.9424 19.6396 14.6084 20.0059 14.1865 20.2871C13.7705 20.5742 13.3018 20.7412 12.7803 20.7881H7.08496C6.66895 20.7588 6.14746 20.6768 5.52051 20.542C4.89941 20.4131 4.2666 20.1699 3.62207 19.8125C3.22363 19.5957 2.82227 19.3145 2.41797 18.9688C2.01953 18.6289 1.65039 18.2041 1.31055 17.6943C0.970703 17.1846 0.695312 16.5781 0.484375 15.875C0.279297 15.1719 0.176758 14.3574 0.176758 13.4316C0.176758 12.4414 0.305664 11.6006 0.563477 10.9092C0.827148 10.2119 1.14941 9.63477 1.53027 9.17773C1.91699 8.71484 2.30371 8.3457 2.69043 8.07031C3.08301 7.78906 3.4082 7.57227 3.66602 7.41992C3.8125 7.33203 3.91504 7.27051 3.97363 7.23535C4.28418 7.00684 4.57129 6.75195 4.83496 6.4707C5.09863 6.18359 5.27734 5.95215 5.37109 5.77637C5.48828 5.55371 5.59668 5.29883 5.69629 5.01172C5.80176 4.71875 5.9043 4.42578 6.00391 4.13281L6.05664 3.97461C6.12695 3.76367 6.2002 3.55273 6.27637 3.3418C6.35254 3.13086 6.43164 2.93164 6.51367 2.74414ZM10.3105 1.97949C10.0762 1.90332 9.8418 1.86523 9.60742 1.86523L9.61621 1.88281C9.20605 1.88281 8.82812 2.00293 8.48242 2.24316C8.13672 2.47754 7.87012 2.81152 7.68262 3.24512C7.59473 3.43848 7.5127 3.64355 7.43652 3.86035C7.36035 4.07715 7.28418 4.2998 7.20801 4.52832C7.10254 4.85059 6.99121 5.17285 6.87402 5.49512C6.7627 5.81738 6.63379 6.11035 6.4873 6.37402C6.34082 6.64941 6.10059 6.96582 5.7666 7.32324C5.43262 7.68066 5.08105 7.99414 4.71191 8.26367C4.6709 8.29297 4.61816 8.3252 4.55371 8.36035C4.49512 8.39551 4.43359 8.43359 4.36914 8.47461L4.31641 8.50977C4.06445 8.65625 3.77441 8.84375 3.44629 9.07227C3.12402 9.30078 2.81055 9.60254 2.50586 9.97754C2.20117 10.3467 1.94629 10.8125 1.74121 11.375C1.54199 11.9316 1.44238 12.6143 1.44238 13.4229C1.44238 14.4072 1.57129 15.2451 1.8291 15.9365C2.09277 16.6221 2.43555 17.1875 2.85742 17.6328C3.2793 18.084 3.7334 18.4385 4.21973 18.6963C4.71191 18.9541 5.18945 19.1416 5.65234 19.2588C6.12109 19.3818 6.53125 19.458 6.88281 19.4873C7.24023 19.5166 7.48633 19.5312 7.62109 19.5312H7.67383C7.85547 19.5312 8.03711 19.5312 8.21875 19.5312C8.40625 19.5312 8.59375 19.5312 8.78125 19.5312C8.6582 19.5078 8.51465 19.4375 8.35059 19.3203C8.19238 19.209 8.05762 19.0273 7.94629 18.7754C7.84082 18.5293 7.80566 18.1953 7.84082 17.7734C7.84668 17.7207 7.85254 17.6709 7.8584 17.624C7.8877 17.3018 7.97852 17.0469 8.13086 16.8594C8.28906 16.6719 8.41797 16.5488 8.51758 16.4902C8.3125 16.3438 8.14844 16.1621 8.02539 15.9453C7.9082 15.7227 7.84961 15.4648 7.84961 15.1719C7.84961 14.9082 7.90527 14.668 8.0166 14.4512C8.12793 14.2344 8.23926 14.0615 8.35059 13.9326C8.46191 13.7979 8.51758 13.7305 8.51758 13.7305C8.51758 13.7305 8.46191 13.6719 8.35059 13.5547C8.23926 13.4316 8.12793 13.2646 8.0166 13.0537C7.90527 12.8428 7.84961 12.5996 7.84961 12.3242C7.84961 11.9609 7.91699 11.6445 8.05176 11.375C8.18652 11.1055 8.3418 10.9297 8.51758 10.8477C8.3418 10.7246 8.18945 10.5459 8.06055 10.3115C7.93164 10.0771 7.86719 9.76367 7.86719 9.37109C7.86719 8.82031 8.00488 8.36914 8.28027 8.01758C8.56152 7.66602 8.92188 7.40234 9.36133 7.22656C9.80664 7.04492 10.2754 6.94238 10.7676 6.91895C10.7969 6.84277 10.8291 6.75488 10.8643 6.65527C11.0283 6.23926 11.1836 5.79687 11.3301 5.32812C11.4824 4.85938 11.5732 4.40234 11.6025 3.95703C11.6377 3.51172 11.5615 3.11621 11.374 2.77051C11.1865 2.41895 10.832 2.15527 10.3105 1.97949ZM11.6289 7.41992C11.5645 7.41992 11.5029 7.41992 11.4443 7.41992C11.3857 7.41992 11.3271 7.41699 11.2686 7.41113C10.9814 7.41113 10.7324 7.42285 10.5215 7.44629C10.3164 7.46973 10.0791 7.56934 9.80957 7.74512C9.7041 7.82129 9.61035 7.91504 9.52832 8.02637C9.49902 8.07324 9.46094 8.1377 9.41406 8.21973C9.4082 8.22559 9.40234 8.23145 9.39648 8.2373C9.39648 8.24316 9.39648 8.24902 9.39648 8.25488C9.33789 8.38379 9.28516 8.50391 9.23828 8.61523C9.19727 8.73828 9.16797 8.8584 9.15039 8.97559C9.13281 9.09277 9.12402 9.19531 9.12402 9.2832C9.12402 9.5 9.16797 9.7373 9.25586 9.99512C9.34375 10.2471 9.47852 10.4668 9.66016 10.6543H12.9385C13.0264 10.6543 13.0996 10.6865 13.1582 10.751C13.2227 10.8096 13.2549 10.8828 13.2549 10.9707C13.2549 11.0586 13.2227 11.1348 13.1582 11.1992C13.0996 11.2578 13.0264 11.2871 12.9385 11.2871H9.37891C9.29102 11.4512 9.22656 11.6152 9.18555 11.7793C9.14453 11.9375 9.12402 12.0752 9.12402 12.1924C9.12402 12.4268 9.16504 12.6611 9.24707 12.8955C9.3291 13.1299 9.44922 13.332 9.60742 13.502H12.9385C13.0264 13.502 13.0996 13.5342 13.1582 13.5986C13.2227 13.6572 13.2549 13.7305 13.2549 13.8184C13.2549 13.9062 13.2227 13.9824 13.1582 14.0469C13.0996 14.1055 13.0264 14.1348 12.9385 14.1348H9.4668C9.34375 14.3223 9.25586 14.5156 9.20312 14.7148C9.15039 14.9082 9.12402 15.0693 9.12402 15.1982C9.12402 15.6611 9.25293 16.0596 9.51074 16.3936H12.9385C13.0264 16.3936 13.0996 16.4258 13.1582 16.4902C13.2227 16.5488 13.2549 16.6221 13.2549 16.71C13.2549 16.7979 13.2227 16.874 13.1582 16.9385C13.0996 16.9971 13.0264 17.0264 12.9385 17.0264H9.42285C9.31738 17.1846 9.24121 17.3486 9.19434 17.5186C9.14746 17.6885 9.12402 17.8291 9.12402 17.9404C9.12402 18.1338 9.15332 18.3213 9.21191 18.5029L9.2207 18.5205C9.25586 18.6377 9.33203 18.7754 9.44922 18.9336C9.56641 19.0918 9.75684 19.2295 10.0205 19.3467C10.2842 19.4697 10.6504 19.5312 11.1191 19.5312C11.1719 19.5312 11.2158 19.5312 11.251 19.5312C11.4619 19.5312 11.6699 19.5312 11.875 19.5312C12.0859 19.5312 12.2939 19.5312 12.499 19.5312C12.9912 19.5312 13.4131 19.3496 13.7646 18.9863C14.1162 18.6289 14.292 18.2012 14.292 17.7031C14.292 17.375 14.21 17.0732 14.0459 16.7979C14.3623 16.6572 14.6201 16.4404 14.8193 16.1475C15.0244 15.8486 15.127 15.5117 15.127 15.1367C15.127 14.8438 15.0625 14.5742 14.9336 14.3281C14.8047 14.0762 14.6318 13.8682 14.415 13.7041C14.708 13.5752 14.9482 13.373 15.1357 13.0977C15.3232 12.8223 15.417 12.5117 15.417 12.166C15.417 11.7852 15.3027 11.4482 15.0742 11.1553C14.8457 10.8623 14.5586 10.666 14.2129 10.5664C14.5586 10.2031 14.7314 9.77539 14.7314 9.2832C14.7314 8.77344 14.5527 8.33984 14.1953 7.98242C13.8379 7.61914 13.4043 7.4375 12.8945 7.4375C12.8184 7.4375 12.6924 7.4375 12.5166 7.4375C12.3467 7.43164 12.1738 7.42871 11.998 7.42871C11.8281 7.42285 11.7051 7.41992 11.6289 7.41992Z" fill="#60A5FA"/>
</svg>
